<?xml version="1.0" encoding="utf-8"?>
<!-- Generator: Adobe Illustrator 19.2.1, SVG Export Plug-In . SVG Version: 6.00 Build 0)  -->
<svg version="1.1" id="Layer_1" xmlns="http://www.w3.org/2000/svg" xmlns:xlink="http://www.w3.org/1999/xlink" x="0px" y="0px"
	 viewBox="0 0 56.5 44.9" style="enable-background:new 0 0 56.5 44.9;" xml:space="preserve">
<style type="text/css">
	.st0{opacity:0.2;stroke:#000000;stroke-miterlimit:10;}
</style>
<g>
	<path class="st0" d="M48,13.8H10c-1.6,0-3-1.3-3-3v0c0-1.6,1.3-3,3-3h38c1.6,0,3,1.3,3,3v0C51,12.5,49.7,13.8,48,13.8z"/>
	<path class="st0" d="M48,26.4H10c-1.6,0-3-1.3-3-3v0c0-1.6,1.3-3,3-3h38c1.6,0,3,1.3,3,3v0C51,25.1,49.7,26.4,48,26.4z"/>
	<path class="st0" d="M48,39H10c-1.6,0-3-1.3-3-3v0c0-1.6,1.3-3,3-3h38c1.6,0,3,1.3,3,3v0C51,37.7,49.7,39,48,39z"/>
</g>
</svg>
